PathFileType	4	(X/Y/Z)	C:\Users\Basilio\Documents\Thesis Gigler\squatting_fais\c3dfiles\047\SJ_pre4\markers_experimental.trc
DataRate	CameraRate	NumFrames	NumMarkers	Units	OrigDataRate	OrigDataStartFrame	OrigNumFrames
200.000000	200.000000	4	61	mm	200.000000	588	1569
Frame#	Time	FHD			LBHD			RBHD			C7			T10			CLAV			LSHO			LUUPA			LMUPA			LDUPA			LLEP			LMEP			LRAD			LUL			LRFIN			RSHO			RUPA1			RMUPA			RDUPA			RLEP			RMEP			RRAD			RUL			RUFIN			LASI			RASI			USACR			LSACR			RSACR			LTHI1			LTHI2			LTHI3			LTHI4			LLFC			LMFC			LTIB1			LTIB2			LTIB3			LTIB4			LLMAL			LMMAL			LMT1			LMT2			LMT5			RTHI			RTHI2			RTHI3			RTHI4			RLFC			RMFC			RTIB1			RTIB2			RTIB3			RTIB4			RLMAL			RMMAL			RHEE			RMT1			RMT2			RMT5			*60			
		X1	Y1	Z1	X2	Y2	Z2	X3	Y3	Z3	X4	Y4	Z4	X5	Y5	Z5	X6	Y6	Z6	X7	Y7	Z7	X8	Y8	Z8	X9	Y9	Z9	X10	Y10	Z10	X11	Y11	Z11	X12	Y12	Z12	X13	Y13	Z13	X14	Y14	Z14	X15	Y15	Z15	X16	Y16	Z16	X17	Y17	Z17	X18	Y18	Z18	X19	Y19	Z19	X20	Y20	Z20	X21	Y21	Z21	X22	Y22	Z22	X23	Y23	Z23	X24	Y24	Z24	X25	Y25	Z25	X26	Y26	Z26	X27	Y27	Z27	X28	Y28	Z28	X29	Y29	Z29	X30	Y30	Z30	X31	Y31	Z31	X32	Y32	Z32	X33	Y33	Z33	X34	Y34	Z34	X35	Y35	Z35	X36	Y36	Z36	X37	Y37	Z37	X38	Y38	Z38	X39	Y39	Z39	X40	Y40	Z40	X41	Y41	Z41	X42	Y42	Z42	X43	Y43	Z43	X44	Y44	Z44	X45	Y45	Z45	X46	Y46	Z46	X47	Y47	Z47	X48	Y48	Z48	X49	Y49	Z49	X50	Y50	Z50	X51	Y51	Z51	X52	Y52	Z52	X53	Y53	Z53	X54	Y54	Z54	X55	Y55	Z55	X56	Y56	Z56	X57	Y57	Z57	X58	Y58	Z58	X59	Y59	Z59	X60	Y60	Z60	X61	Y61	Z61	

589	2.94	244.6305847167969	1009.72265625	-900.3013916015627	95.23341369628908	1081.389404296875	-978.403503417969	80.57427215576173	1095.646850585938	-830.6284790039065	-49.34421157836915	993.7395629882815	-908.7343750000002	-315.0392761230469	833.3123779296877	-900.302185058594	13.98931121826172	837.6765747070315	-902.618591308594	-12.91154670715332	906.8689575195315	-1074.85791015625	-158.2481689453125	948.137390136719	-1187.495483398438	-160.6282806396485	905.1391601562502	-1214.84375	-209.7036285400391	934.2337036132815	-1234.38818359375	-261.3552551269532	895.3641357421877	-1276.08203125	-316.6058349609376	920.9790649414065	-1197.976440429688	-336.6742248535157	718.7847290039064	-1102.797973632813	-329.4430541992188	668.8652343750001	-1161.600463867188	-290.0141296386719	678.8692626953126	-1066.067626953125	-12.16934585571289	932.4318847656252	-745.6687011718751	-173.1410369873047	981.153015136719	-635.0161132812501	-179.6796264648438	941.217712402344	-607.8572387695314	-229.2693023681641	972.029235839844	-592.4279785156251	-283.5013122558594	933.979187011719	-553.8063354492189	-339.7098999023438	947.4315185546877	-628.2091674804689	-284.2167663574219	729.0747070312501	-698.9995117187501	-297.2787170410157	689.2838745117189	-634.5295410156251	-269.1432800292969	666.8443603515626	-734.8505859375001	-378.8235473632813	570.2756958007814	-1000.54345703125	-374.6569213867188	582.0433349609376	-771.0501708984377	-451.827117919922	758.5656127929689	-900.4006347656252	-480.7649536132814	744.4247436523439	-928.311706542969	-481.1634216308595	743.3787231445314	-870.7551879882815	-448.8226318359376	582.5333251953126	-1117.674438476563	-369.2175598144532	577.8438110351564	-1140.670043945313	-341.0081481933594	608.4230346679689	-1115.331298828125	-342.1657104492188	531.9545898437501	-1168.583251953125	-209.9769744873047	434.7580871582032	-1206.093505859375	-148.3061065673828	424.9057006835939	-1091.552612304688	-208.1745758056641	267.6411437988282	-1110.293334960938	-251.2210998535157	228.1988372802735	-1176.124389648438	-223.7473754882813	225.3978576660157	-1136.56591796875	-274.3024597167969	162.6522216796875	-1097.669555664063	-367.9276123046876	94.04100036621095	-1130.957641601563	-331.4673461914063	106.0163879394532	-1046.580688476563	-214.7808532714844	65.09095001220705	-1098.1376953125	-226.7277221679688	61.62871170043947	-1139.9443359375	-275.7031250000001	43.66658401489259	-1177.69677734375	-426.8562316894532	555.3108520507814	-652.7399902343751	-363.2260131835938	558.1865844726564	-633.4606323242189	-343.5593261718751	583.4281005859376	-642.7387695312501	-313.8890686035157	494.6333618164064	-611.3655395507814	-188.4542846679688	424.5182495117189	-599.5416259765626	-133.2980041503907	428.3843383789064	-722.2017822265626	-171.0265502929688	300.9859619140626	-629.7445678710939	-271.7857666015626	254.1404724121094	-616.6473388671876	-230.327621459961	237.2697448730469	-626.9310302734376	-237.7416687011719	196.2752075195313	-670.2464599609376	-365.5636291503907	91.0136184692383	-677.7773437500001	-319.8716430664063	105.1518020629883	-758.1892089843751	-417.0721740722657	53.69080352783205	-744.5803833007814	-206.8462982177735	54.1774253845215	-709.5549926757814	-217.1893157958985	57.50732421875001	-665.3870849609376	-274.9414062500001	31.11375808715821	-618.9057006835939	nan	nan	nan	
590	2.945	244.6456298828126	1009.780822753906	-900.3789672851565	95.3378372192383	1081.425048828125	-978.561706542969	80.62953186035158	1095.750854492188	-830.764587402344	-49.28842544555665	993.7349853515627	-908.9058227539065	-314.8253784179688	833.2178344726565	-900.5264892578127	14.04072666168213	837.740661621094	-902.720153808594	-12.79798603057862	906.9171142578127	-1075.050659179688	-158.2063751220703	948.2442016601565	-1187.575073242188	-160.6167449951172	905.204040527344	-1214.931762695313	-209.5547485351563	934.3007812500002	-1234.529418945313	-261.2837219238282	895.4617919921877	-1276.187255859375	-316.5481872558594	921.0524902343752	-1198.114379882813	-336.5946960449219	718.8178710937501	-1102.924072265625	-329.2556152343751	668.9902954101564	-1161.783935546875	-290.0007019042969	678.8455200195314	-1066.160034179688	-12.12950134277344	932.447448730469	-745.7846069335939	-173.1454162597657	981.1546020507815	-635.1172485351564	-179.6835021972657	941.0092773437502	-607.6077270507814	-229.2078857421876	971.9305419921877	-592.5671997070314	-283.3720703125001	933.753845214844	-553.9898681640626	-339.6171264648438	947.3279418945315	-628.4196166992189	-283.6840515136719	728.9912109375001	-699.1726074218751	-297.1640625000001	689.2301025390626	-634.6571044921876	-268.9830932617188	666.6460571289064	-734.9368896484376	-378.6376342773438	570.1331787109376	-1000.298828125	-375.2609863281251	581.9067993164064	-770.8173828125002	-451.503143310547	758.6231079101564	-900.477722167969	-480.5196533203126	744.4561157226564	-928.4473266601565	-481.1666870117189	743.4047851562501	-870.8671875000002	-448.7980957031251	582.4224243164064	-1117.765991210938	-369.1312561035157	577.8075561523439	-1140.82861328125	-340.9680786132813	608.3341674804689	-1115.478149414063	-342.1593322753907	531.8351440429689	-1168.752685546875	-209.8747711181641	434.6408691406251	-1206.239013671875	-148.1188659667969	424.981170654297	-1091.7294921875	-208.1345214843751	267.6748352050782	-1110.441284179688	-251.2675476074219	228.1892242431641	-1176.088500976563	-223.7276611328126	225.3958129882813	-1136.549926757813	-274.2651367187501	162.6543731689453	-1097.65234375	-367.9034729003907	94.0443572998047	-1130.892578125	-331.4140319824219	106.0401840209961	-1046.603515625	-214.7959136962891	65.11708831787111	-1098.102172851563	-226.6878814697266	61.5604591369629	-1139.920288085938	-275.7304382324219	43.65865325927735	-1177.68212890625	-426.4146118164064	555.4166259765626	-653.1267700195314	-362.8897399902344	558.2594604492189	-633.7515258789064	-343.4540710449219	583.4544677734376	-642.7866821289064	-313.7438659667969	494.6787109375001	-611.4884643554689	-188.2181701660157	424.4763183593751	-599.7075805664064	-133.3049926757813	428.2535705566407	-722.2654418945314	-170.9575347900391	300.9666137695313	-629.8731689453126	-271.6771240234376	254.0953216552735	-616.7227783203126	-230.2354278564454	237.2198638916016	-626.9983520507814	-237.7310485839844	196.2938995361329	-670.3292236328126	-365.4916687011719	91.12127685546876	-677.8075561523439	-319.8714599609376	105.1709976196289	-758.2503662109376	-417.1112670898439	53.72904205322267	-744.5664062500001	-207.2606964111329	54.13011169433595	-709.4154052734376	-217.1743774414063	57.51148605346681	-665.4030761718751	-274.9283752441407	31.11422538757325	-618.9484863281251	nan	nan	nan	
591	2.95	244.7024841308594	1009.818420410156	-900.4036254882815	95.52257537841798	1081.487426757813	-978.5504150390627	80.97811889648439	1095.989379882813	-831.1719360351565	-49.26507949829103	993.7807617187502	-909.023376464844	-314.7512512207032	833.288024902344	-900.614929199219	14.04096126556397	837.872253417969	-902.8345947265627	-12.70562934875489	906.9307861328127	-1075.1826171875	-158.0753173828125	948.2346801757815	-1187.723388671875	-160.5010375976563	905.279968261719	-1215.110473632813	-209.4653625488282	934.3587646484377	-1234.690673828125	-261.1972656250001	895.577331542969	-1276.295654296875	-316.4453125000001	921.0711669921877	-1198.24853515625	-336.4906921386719	718.8261108398439	-1103.08544921875	-329.0881958007813	669.0751953125001	-1161.963745117188	-289.9526672363282	678.8967285156251	-1066.269653320313	-12.04281711578369	932.508972167969	-745.8060913085939	-173.0901489257813	981.1233520507815	-635.2198486328126	-179.6872711181641	940.897644042969	-607.7597045898439	-229.1632995605469	971.865173339844	-592.7854003906251	-283.3472290039063	933.704284667969	-554.1185302734376	-339.5396728515626	947.2021484375002	-628.6470336914064	-283.4314270019532	728.8043823242189	-699.3466186523439	-296.8694458007813	689.2084350585939	-634.7617187500001	-268.6795959472657	666.6989746093751	-735.1336059570314	-378.5850219726563	569.8312377929689	-999.7996826171877	-375.7538452148438	582.0722045898439	-770.3601074218752	-451.3896789550782	758.6376953125001	-900.6177368164065	-480.3851928710939	744.4332885742189	-928.560729980469	-481.2355346679689	743.4826660156251	-870.943542480469	-448.6515197753907	582.3520507812501	-1117.91162109375	-369.0790100097657	577.6958618164064	-1140.97412109375	-340.9213867187501	608.2732543945314	-1115.61572265625	-342.0635681152344	531.7167358398439	-1168.88525390625	-209.8528900146485	434.5549926757814	-1206.52197265625	-148.0538024902344	424.9481811523439	-1091.884643554688	-208.0413208007813	267.6186218261719	-1110.531372070313	-251.2253570556641	228.1164245605469	-1176.12646484375	-227.3465423583985	222.9767608642579	-1136.562744140625	-274.2582397460938	162.6437225341797	-1097.703369140625	-367.9145507812501	93.99704742431642	-1130.946166992188	-331.4071960449219	106.0498580932617	-1046.602783203125	-214.7871093750001	65.10385131835939	-1098.178100585938	-226.7034606933594	61.66073226928712	-1139.9599609375	-275.7030639648438	43.67125320434571	-1177.694213867188	-426.1808471679689	555.5198364257814	-653.2095947265626	-362.6098022460938	558.3632812500001	-633.9415893554689	-343.2662658691407	583.4654541015626	-642.9944458007814	-313.5786743164063	494.7337036132814	-611.6165771484376	-187.9788360595703	424.3111572265626	-599.8440551757814	-133.3219604492188	428.0988159179689	-722.3616943359376	-170.793212890625	300.8258056640626	-629.8258056640626	-271.5989990234376	254.114730834961	-616.7695312500001	-230.1408996582032	237.1951751708985	-627.0574951171876	-237.7079620361329	196.3295288085938	-670.3134765625001	-365.4238586425782	91.1962127685547	-677.6836547851564	-319.8679199218751	105.1750259399414	-758.2505493164064	-417.0339965820314	53.69628143310548	-744.5559692382814	-207.2683258056641	54.12227630615236	-709.4036865234376	-217.1953277587891	57.49172592163087	-665.3394775390626	-274.9268188476563	31.12523078918458	-618.9489746093751	nan	nan	nan	
592	2.955	244.7254180908204	1009.941223144531	-900.3431396484377	95.46878051757814	1081.4853515625	-978.731140136719	81.01451110839845	1096.109741210938	-831.3533325195315	-49.1887550354004	993.8823242187502	-909.146667480469	-314.5799255371094	833.2009277343752	-900.8105468750002	14.1363525390625	837.9370727539065	-902.8015747070315	-12.67844772338868	907.0342407226565	-1075.27099609375	-157.9721832275391	948.3435668945315	-1187.878295898438	-160.506576538086	905.2994384765627	-1215.157592773438	-209.4497680664063	934.4627685546877	-1234.832275390625	-261.0940856933594	895.6058349609377	-1276.435424804688	-316.3532409667969	921.047790527344	-1198.408813476563	-336.3685913085938	718.8440551757814	-1103.216918945313	-328.9705200195313	669.0344848632814	-1162.176635742188	-289.7667236328126	678.8774414062501	-1066.462646484375	-11.91216659545899	932.5928344726565	-746.1162109375001	-173.0838012695313	981.1329345703127	-635.3695678710939	-179.629638671875	940.9578857421877	-608.0232543945314	-229.1745758056641	971.772399902344	-593.0023193359376	-283.3854980468751	933.6663208007815	-554.2548828125001	-339.5630493164063	947.1521606445315	-628.7890625000001	-283.4608459472657	728.5951538085939	-699.3754882812501	-296.6950988769532	689.0557250976564	-634.8599243164064	-268.4762573242188	666.4761962890626	-735.0322875976564	-381.6563110351563	569.3015747070314	-1001.396911621094	-376.5929260253907	580.5899047851564	-771.9720458984377	-451.3120727539064	758.5607299804689	-900.829040527344	-480.9159545898439	744.6854858398439	-928.4853515625002	-481.2593994140626	743.5227661132814	-871.013366699219	-448.6392517089845	582.3186035156251	-1118.044189453125	-369.0390930175782	577.6780395507814	-1141.115844726563	-340.8980712890626	608.2403564453126	-1115.72509765625	-341.9892272949219	531.6484375000001	-1169.016723632813	-209.8040313720704	434.4421997070314	-1206.545532226563	-148.0535583496094	424.854461669922	-1092.055541992188	-207.9237670898438	267.7156677246094	-1110.614624023438	-251.2882843017579	228.0546264648438	-1176.191162109375	-223.7272491455079	225.3458709716797	-1136.624389648438	-274.2542114257813	162.5990447998047	-1097.77490234375	-367.8983764648438	94.03821563720705	-1130.9384765625	-331.3363342285157	106.1306610107422	-1046.623168945313	-214.7095489501954	65.13952636718751	-1098.15966796875	-226.6334838867188	61.2507667541504	-1139.783935546875	-275.7480163574219	43.67314910888673	-1177.659423828125	-426.0109252929689	555.5313110351564	-653.3946533203126	-362.4260864257813	558.3408813476564	-634.2236328125001	-343.0644531250001	583.4423217773439	-643.0952758789064	-313.3983459472657	494.7500305175782	-611.4841918945314	-187.8920288085938	424.2308959960939	-599.9765014648439	-133.273422241211	427.9873352050782	-722.4990844726564	-170.6985168457032	300.8747558593751	-629.9505004882814	-271.5659790039063	254.1478271484376	-616.8392333984376	-230.0347442626954	237.2384185791016	-627.2014160156251	-237.6686401367188	196.3702850341797	-670.4214477539064	-365.4082031250001	91.28327941894533	-677.7348022460939	-319.8532409667969	105.1420440673828	-758.3453979492189	-417.0726623535157	53.70054244995119	-744.5701904296876	-207.2710876464844	54.12153244018556	-709.3937377929689	-217.1669006347657	57.51234817504884	-665.4055175781251	-274.9248352050782	31.13731002807618	-618.9733886718751	nan	nan	nan	
